# xmcd CD database file
#
# Track frame offsets:
#	150
#	24113
#	47026
#	66038
#	96932
#	126371
#	149910
#	165868
#	194767
#	213436
#	233629
#	253069
#	279319
#	307873
#	331762
#
# Disc length: 4792 seconds
#
# Revision: 5
# Processed by: cddbd v1.5.2PL0 Copyright (c) Steve Scherf et al.
# Submitted via: CDex 1.51
#
DISCID=d312b60f
DTITLE=Henning Mankell - Die fünfte Frau 2
DYEAR=2005
DGENRE=Hörbuch
TTITLE0=17-Die fünfte Frau 2
TTITLE1=18-Die fünfte Frau 2
TTITLE2=19-Die fünfte Frau 2
TTITLE3=20-Die fünfte Frau 2
TTITLE4=21-Die fünfte Frau 2
TTITLE5=22-Die fünfte Frau 2
TTITLE6=23-Die fünfte Frau 2
TTITLE7=24-Die fünfte Frau 2
TTITLE8=25-Die fünfte Frau 2
TTITLE9=26-Die fünfte Frau 2
TTITLE10=27-Die fünfte Frau 2
TTITLE11=28-Die fünfte Frau 2
TTITLE12=29-Die fünfte Frau 2
TTITLE13=30-Die fünfte Frau 2
TTITLE14=31-Die fünfte Frau 2
EXTD=YEAR: 2005
EXTT0=
EXTT1=
EXTT2=
EXTT3=
EXTT4=
EXTT5=
EXTT6=
EXTT7=
EXTT8=
EXTT9=
EXTT10=
EXTT11=
EXTT12=
EXTT13=
EXTT14=
PLAYORDER=
